<svg width="15" height="15" fill="none" xmlns="http://www.w3.org/2000/svg"><path d="M13.496 6.015H15A7.865 7.865 0 0011.9.113l-1.072 1.071a6.397 6.397 0 012.67 4.831zM4.177 1.188L3.102.113A7.865 7.865 0 000 6.015h1.504a6.376 6.376 0 012.673-4.827zm7.834 5.203c0-2.312-1.23-4.24-3.383-4.752v-.511C8.628.504 8.124 0 7.5 0c-.624 0-1.128.504-1.128 1.128v.511C4.218 2.15 2.99 4.08 2.99 6.391v3.76l-1.504 1.503v.752h12.03v-.752L12.01 10.15V6.391zM7.5 14.662a1.518 1.518 0 001.387-.918c.075-.18.117-.376.117-.586H5.996c0 .83.673 1.504 1.504 1.504z" fill="#64C70E"/></svg>