<svg width="18" height="18" fill="none" xmlns="http://www.w3.org/2000/svg"><path d="M7.018 5.052a.478.478 0 00-.679 0 .48.48 0 10.679 0zm4.642 3.444a.478.478 0 00-.819.34.48.48 0 10.819-.34z" fill="#64C70E"/><path d="M17.978 11.15a.535.535 0 00-.513-.385h-2.05V.535A.535.535 0 0014.879 0H3.121a.535.535 0 00-.535.535v10.23H.536a.535.535 0 00-.29.986l8.464 5.446a.535.535 0 00.58 0l8.464-5.446a.535.535 0 00.224-.601zM5.583 4.295a1.552 1.552 0 012.192 0A1.552 1.552 0 016.68 6.941a1.552 1.552 0 01-1.096-2.646zm1.795 6.45a.535.535 0 11-.906-.571l4.206-6.68a.535.535 0 01.906.57l-4.206 6.68zm5.04-.814a1.55 1.55 0 01-2.193 0 1.552 1.552 0 010-2.192 1.552 1.552 0 012.192 0 1.552 1.552 0 010 2.192z" fill="#64C70E"/></svg>