<svg width="21" height="20" fill="none" xmlns="http://www.w3.org/2000/svg"><path d="M13.648 6.653l-.113-.242-2.756-5.87 2.87 6.112zm0 0l.264.04m-.264-.04l.264.04m0 0l6.148.94m-6.148-.94l6.148.94m0 0s0 0 0 0c.1.015.142.137.07.21l-4.466 4.58-.176.18.04.249 1.056 6.472h0a.117.117 0 01-.007.07.128.128 0 01-.044.052.119.119 0 01-.132.008h0l-5.492-3.036-.242-.134-.242.134-5.492 3.035h-.001a.125.125 0 01-.183-.13h0l1.056-6.472.04-.25-.175-.18-4.467-4.578h0a.125.125 0 01.07-.21s0 0 0 0l6.148-.94.264-.04.113-.242 2.755-5.87s0 0 0 0c.002-.004.007-.012.023-.02a.19.19 0 01.09-.021.2.2 0 01.09.02c.017.01.021.017.023.021l9.28 7.091z" fill="#fff" stroke="#E0E0E0"/></svg>