<svg width="12" height="7" viewBox="0 0 12 7" fill="none" xmlns="http://www.w3.org/2000/svg">
<path d="M5.96017 4.64774L1.50249 0.190257C1.38004 0.0675196 1.21633 -5.31675e-08 1.04177 -4.5537e-08C0.867104 -3.79023e-08 0.703487 0.0675196 0.580846 0.190257L0.190451 0.580846C0.0676166 0.703389 -2.68073e-07 0.867201 -2.60443e-07 1.04177C-2.52812e-07 1.21633 0.0676167 1.37995 0.190451 1.50259L5.4977 6.80993C5.62073 6.93306 5.78512 7.00048 5.95988 7C6.13541 7.00048 6.29961 6.93316 6.42274 6.80993L11.7248 1.50753C11.8477 1.38489 11.9153 1.22127 11.9153 1.04661C11.9153 0.872045 11.8477 0.708427 11.7248 0.58569L11.3345 0.195197C11.0804 -0.0588989 10.6667 -0.0588989 10.4127 0.195197L5.96017 4.64774Z" fill="#038DC6"/>
</svg>
