<svg width="13" height="7" viewBox="0 0 13 7" fill="none" xmlns="http://www.w3.org/2000/svg">
<path d="M6.87089 2.35226L11.3286 6.80974C11.451 6.93248 11.6147 7 11.7893 7C11.9639 7 12.1276 6.93248 12.2502 6.80974L12.6406 6.41915C12.7634 6.29661 12.8311 6.1328 12.8311 5.95823C12.8311 5.78367 12.7634 5.62005 12.6406 5.49741L7.33335 0.190066C7.21033 0.0669411 7.04593 -0.000482019 6.87118 2.33482e-06C6.69564 -0.000482035 6.53144 0.0668443 6.40832 0.190066L1.1062 5.49247C0.983371 5.61511 0.915753 5.77873 0.915753 5.95339C0.915753 6.12795 0.983371 6.29157 1.1062 6.41431L1.4966 6.8048C1.7507 7.0589 2.16434 7.0589 2.41834 6.8048L6.87089 2.35226Z" fill="#038DC6"/>
</svg>
