<svg width="5" height="9" viewBox="0 0 5 9" fill="none" xmlns="http://www.w3.org/2000/svg">
<path d="M3.31982 4.74274L0.135898 7.92679C0.0482287 8.01425 4.00884e-07 8.13119 4.11784e-07 8.25588C4.22691e-07 8.38064 0.0482287 8.49751 0.135898 8.58511L0.41489 8.86396C0.502421 8.9517 0.61943 9 0.744118 9C0.868807 9 0.985676 8.9517 1.07328 8.86396L4.86424 5.07307C4.95218 4.98519 5.00034 4.86777 5 4.74294C5.00034 4.61756 4.95225 4.50028 4.86424 4.41233L1.0768 0.625108C0.989205 0.537369 0.872335 0.489071 0.747577 0.489071C0.622889 0.489071 0.506019 0.537369 0.418349 0.625108L0.139426 0.903962C-0.0420706 1.08546 -0.0420706 1.38092 0.139427 1.56235L3.31982 4.74274Z" fill="#BDBDBD"/>
</svg>
