<svg width="8" height="12" viewBox="0 0 8 12" fill="none" xmlns="http://www.w3.org/2000/svg">
<path d="M5.06763 5.99762L1.02737 10.038C0.916124 10.149 0.854924 10.2974 0.854924 10.4556C0.854924 10.614 0.916124 10.7623 1.02737 10.8734L1.3814 11.2273C1.49247 11.3386 1.64095 11.3999 1.79918 11.3999C1.9574 11.3999 2.1057 11.3386 2.21687 11.2273L7.02743 6.4168C7.13903 6.30529 7.20014 6.15628 7.19971 5.99788C7.20014 5.83878 7.13912 5.68995 7.02743 5.57835L2.22134 0.772527C2.11018 0.661191 1.96188 0.599902 1.80357 0.599902C1.64534 0.599902 1.49704 0.66119 1.38579 0.772527L1.03185 1.12638C0.801539 1.35669 0.801539 1.73162 1.03185 1.96184L5.06763 5.99762Z" fill="#038DC6"/>
</svg>
