<svg width="15" height="15" viewBox="0 0 15 15" fill="none" xmlns="http://www.w3.org/2000/svg">
<path d="M13.4963 6.01506H15.0001C14.8873 3.60526 13.6993 1.48496 11.8986 0.112793L10.8271 1.18422C12.3535 2.27821 13.3798 4.02256 13.4963 6.01506Z" fill="#64C70E"/>
<path d="M4.1767 1.18799L3.1015 0.112793C1.30076 1.48496 0.112782 3.60526 0 6.01506H1.50377C1.62029 4.02256 2.6466 2.27821 4.1767 1.18799Z" fill="#64C70E"/>
<path d="M12.0112 6.39097C12.0112 4.07894 10.7819 2.15036 8.62773 1.63907V1.12782C8.62773 0.503748 8.12398 0 7.49991 0C6.87584 0 6.37209 0.503748 6.37209 1.12782V1.63911C4.21796 2.1504 2.98863 4.07897 2.98863 6.391V10.1504L1.48486 11.6541V12.406H13.5149V11.6541L12.0112 10.1504V6.39097Z" fill="#64C70E"/>
<path d="M7.49983 14.6617C7.6051 14.6617 7.70661 14.6504 7.80434 14.6316C8.29307 14.5301 8.69532 14.1918 8.88705 13.7444C8.96222 13.564 9.0036 13.3685 9.0036 13.158H5.99609C5.99606 13.9888 6.66901 14.6617 7.49983 14.6617Z" fill="#64C70E"/>
</svg>
