<svg width="18" height="18" viewBox="0 0 18 18" fill="none" xmlns="http://www.w3.org/2000/svg">
<path d="M17.9782 11.1498C17.9113 10.922 17.7022 10.7655 17.4647 10.7655H15.4145V0.535253C15.4145 0.23966 15.1748 0 14.8792 0H3.12082C2.82523 0 2.58557 0.23966 2.58557 0.535253V10.7655H0.535296C0.297816 10.7655 0.0887069 10.922 0.0217695 11.1498C-0.0452031 11.3777 0.0459569 11.6224 0.245644 11.7509L8.71031 17.1974C8.79852 17.2541 8.89924 17.2825 8.99996 17.2825C9.10069 17.2825 9.20141 17.2542 9.28961 17.1974L17.7543 11.7509C17.9541 11.6224 18.0452 11.3777 17.9782 11.1498ZM5.58278 4.29503C6.18729 3.69059 7.17075 3.69059 7.77516 4.29503C8.37956 4.89948 8.3796 5.88297 7.77516 6.48738C7.47295 6.78958 7.07597 6.94072 6.67898 6.94072C6.282 6.94072 5.88502 6.78961 5.58278 6.48741C4.97834 5.88297 4.97834 4.89948 5.58278 4.29503ZM7.37796 10.7443C7.27622 10.9059 7.1023 10.9944 6.92448 10.9944C6.82699 10.9944 6.72834 10.9678 6.63975 10.912C6.38961 10.7545 6.31449 10.424 6.47198 10.1738L10.6781 3.49411C10.8356 3.24397 11.1661 3.16888 11.4162 3.32634C11.6664 3.48384 11.7415 3.81434 11.584 4.06452L7.37796 10.7443ZM12.4172 9.93128C12.115 10.2334 11.718 10.3846 11.321 10.3846C10.924 10.3846 10.5271 10.2336 10.2248 9.93128C9.6204 9.32684 9.6204 8.34334 10.2248 7.73894C10.8293 7.1345 11.8128 7.1345 12.4172 7.73894C13.0217 8.34341 13.0217 9.32687 12.4172 9.93128Z" fill="#375700"/>
</svg>
