<svg width="21" height="20" viewBox="0 0 21 20" fill="none" xmlns="http://www.w3.org/2000/svg">
<path d="M13.6482 6.65273L13.5349 6.41124L10.779 0.541276L13.6482 6.65273ZM13.6482 6.65273L13.912 6.69302M13.6482 6.65273L13.912 6.69302M13.912 6.69302L20.0598 7.63211M13.912 6.69302L20.0598 7.63211M20.0598 7.63211C20.0599 7.63212 20.0599 7.63212 20.0599 7.63213C20.1595 7.64751 20.2024 7.76989 20.1302 7.84391L15.6637 12.4221L15.4875 12.6027L15.5281 12.8517L16.584 19.3243L16.584 19.3245C16.5892 19.3563 16.5842 19.3779 16.577 19.394C16.5688 19.4122 16.5541 19.4308 16.5328 19.4456C16.49 19.4754 16.4436 19.4778 16.4011 19.4542L16.4002 19.4537L10.9085 16.4178L10.6667 16.2841L10.4248 16.4178L4.93311 19.4528L4.932 19.4534C4.84379 19.5025 4.7325 19.4259 4.74923 19.3237L4.74927 19.3234L5.8051 12.8509L5.84573 12.6019L5.66952 12.4213L1.20285 7.84292L1.2026 7.84266C1.13118 7.76956 1.17293 7.64768 1.27312 7.63216C1.27318 7.63215 1.27324 7.63214 1.27331 7.63213L7.42129 6.69302L7.68506 6.65273L7.79842 6.41118L10.5534 0.541276C10.5534 0.541253 10.5534 0.54123 10.5534 0.541208C10.5554 0.536903 10.5597 0.529449 10.5764 0.520257C10.5958 0.509604 10.6273 0.5 10.6662 0.5C10.7052 0.5 10.7366 0.509604 10.756 0.520257C10.7728 0.52947 10.777 0.536937 10.779 0.541237L20.0598 7.63211Z" fill="white" stroke="#E0E0E0"/>
</svg>
